<svg xmlns="http://www.w3.org/2000/svg" xmlns:xlink="http://www.w3.org/1999/xlink" width="500" zoomAndPan="magnify" viewBox="0 0 375 374.999991" height="500" preserveAspectRatio="xMidYMid meet" version="1.0"><defs><g/><clipPath id="f9726d91d1"><path d="M 187.5 0 C 83.945312 0 0 83.945312 0 187.5 C 0 291.054688 83.945312 375 187.5 375 C 291.054688 375 375 291.054688 375 187.5 C 375 83.945312 291.054688 0 187.5 0 Z M 187.5 0 " clip-rule="nonzero"/></clipPath></defs><rect x="-37.5" width="450" fill="#ffffff" y="-37.499999" height="449.999989" fill-opacity="1"/><rect x="-37.5" width="450" fill="#ffffff" y="-37.499999" height="449.999989" fill-opacity="1"/><g clip-path="url(#f9726d91d1)"><rect x="-37.5" width="450" fill="#2d86ec" y="-37.499999" height="449.999989" fill-opacity="1"/></g><g fill="#f8f8f8" fill-opacity="1"><g transform="translate(160.582839, 302.983895)"><g><path d="M 32 0 L 32 -252.4375 L 43.015625 -252.4375 L 43.015625 -9.59375 L 165.6875 -9.59375 L 163.90625 0 Z M 32 0 "/></g></g></g><g fill="#f8f8f8" fill-opacity="1"><g transform="translate(45.212486, 302.983895)"><g><path d="M 148.265625 -114.484375 L 225.421875 -114.484375 L 225.421875 0 L 217.59375 0 L 215.109375 -42.3125 C 207.285156 -27.375 196.734375 -16.171875 183.453125 -8.703125 C 170.179688 -1.242188 153.59375 2.484375 133.6875 2.484375 C 111.40625 2.484375 92.144531 -2.429688 75.90625 -12.265625 C 59.664062 -22.097656 47.160156 -36.257812 38.390625 -54.75 C 29.628906 -73.238281 25.25 -95.640625 25.25 -121.953125 C 25.25 -148.503906 30.046875 -171.789062 39.640625 -191.8125 C 49.242188 -211.84375 62.753906 -227.546875 80.171875 -238.921875 C 97.597656 -250.304688 117.925781 -256 141.15625 -256 C 159.40625 -256 175.640625 -252.085938 189.859375 -244.265625 C 204.078125 -236.441406 215.097656 -224.941406 222.921875 -209.765625 L 214.390625 -202.65625 C 206.804688 -216.644531 197.03125 -227.191406 185.0625 -234.296875 C 173.09375 -241.410156 157.742188 -244.96875 139.015625 -244.96875 C 118.867188 -244.96875 101.09375 -239.753906 85.6875 -229.328125 C 70.28125 -218.898438 58.25 -204.378906 49.59375 -185.765625 C 40.945312 -167.160156 36.625 -145.648438 36.625 -121.234375 C 36.625 -84.734375 45.035156 -56.820312 61.859375 -37.5 C 78.691406 -18.1875 102.867188 -8.53125 134.390625 -8.53125 C 161.410156 -8.53125 181.617188 -15.582031 195.015625 -29.6875 C 208.410156 -43.789062 215.109375 -62.691406 215.109375 -86.390625 L 215.109375 -104.890625 L 148.265625 -104.890625 Z M 148.265625 -114.484375 "/></g></g></g></svg>